<?xml version="1.0" encoding="utf-8"?>
<!-- Generator: Adobe Illustrator 18.1.0, SVG Export Plug-In . SVG Version: 6.00 Build 0)  -->
<!DOCTYPE svg PUBLIC "-//W3C//DTD SVG 1.1//EN" "http://www.w3.org/Graphics/SVG/1.1/DTD/svg11.dtd">
<svg version="1.1" id="Calque_1" xmlns="http://www.w3.org/2000/svg" xmlns:xlink="http://www.w3.org/1999/xlink" x="0px" y="0px"
	 viewBox="25 100 450 82" enable-background="new 25 100 450 82" xml:space="preserve">
<g>
	<g>
		<rect x="27.8" y="112" fill="#1F458A" width="100.3" height="57"/>
		<path fill="#FFFFFF" d="M128.1,111.8H27.8h-0.3v0.3v57v0.3h0.3h100.3h0.3v-0.3v-57v-0.3H128.1z M128.2,169.2H27.7v-57.3h100.6
			V169.2z"/>
		<path fill="#FFFFFF" d="M27.7,169.2h100.6v-57.3H27.7V169.2z M27.8,112h100.3v57H27.8V112z"/>
	</g>
	<g>
		<path fill="#FFFFFF" d="M89.9,133.8c1.3-1.7,2.5-5.7,0.5-8.6c-1.3-1.9-3.4-2.9-5.5-3.4c-5.8-1.3-11.8,0.5-16.9,3.3
			c-4.4,2.3-8.8,5.5-11.7,9.7c-1,1.4-1.8,3-2.3,5c-0.5,1.9-0.7,4-0.4,6c1.5,10.6,12.9,14.5,21.9,14.1c6.1-0.2,12.4-1.9,17.8-5
			c4.8-2.7,9.5-6.6,12.5-11.5c0.1-0.2,1.2-2.1,1.6-1.8c0.4,0.3-0.7,2.1-0.9,2.3c-3.1,5.1-7.3,9.5-12.1,12.9
			c-5.1,3.6-11.1,5.9-17.2,6.8c-5.3,0.7-10.8,0.5-15.8-1.5c-4.2-1.7-7.8-4.7-9.6-9.1c-1.6-4-1.2-8.5,0.3-12.5
			c4.1-10.5,13.4-18.7,23.7-22c4.7-1.5,11.3-2.4,15.5,1C96.4,123.5,94.2,130.5,89.9,133.8"/>
	</g>
	<polygon fill="#FDCB0E" points="78.2,127.8 79.6,126.8 77.9,126.8 77.4,125.2 76.8,126.8 75.2,126.8 76.5,127.8 76,129.4 
		77.4,128.4 78.7,129.4 	"/>
	<polygon fill="#FDCB0E" points="85.2,129.6 86.5,128.7 84.8,128.7 84.3,127.1 83.8,128.7 82.1,128.7 83.4,129.6 83,131.2 
		84.3,130.3 85.6,131.2 	"/>
	<polygon fill="#FDCB0E" points="90.2,134.8 91.6,133.8 89.9,133.8 89.4,132.2 88.9,133.8 87.2,133.8 88.6,134.8 88,136.4 
		89.4,135.4 90.8,136.4 	"/>
	<polygon fill="#FDCB0E" points="92.1,141.8 93.4,140.8 91.8,140.8 91.2,139.2 90.7,140.8 89,140.8 90.4,141.8 89.9,143.4 
		91.2,142.4 92.6,143.4 	"/>
	<polygon fill="#FDCB0E" points="90.2,148.8 91.6,147.8 89.9,147.8 89.4,146.2 88.8,147.8 87.2,147.8 88.6,148.8 88,150.4 
		89.4,149.4 90.8,150.4 	"/>
	<polygon fill="#FDCB0E" points="85.2,153.8 86.5,152.9 84.8,152.9 84.3,151.3 83.8,152.9 82.1,152.9 83.4,153.8 83,155.5 
		84.3,154.5 85.6,155.5 	"/>
	<polygon fill="#FDCB0E" points="78.2,155.7 79.6,154.8 77.9,154.8 77.4,153.2 76.8,154.8 75.2,154.8 76.5,155.7 76,157.3 
		77.4,156.3 78.7,157.3 	"/>
	<polygon fill="#FDCB0E" points="71.2,153.8 72.6,152.9 70.9,152.9 70.4,151.3 69.9,152.9 68.2,152.9 69.6,153.8 69,155.5 
		70.4,154.5 71.8,155.5 	"/>
	<polygon fill="#FDCB0E" points="66.2,148.8 67.5,147.8 65.8,147.8 65.3,146.2 64.8,147.8 63.1,147.8 64.5,148.8 64,150.4 
		65.3,149.4 66.7,150.4 	"/>
	<polygon fill="#FDCB0E" points="64.3,141.8 65.6,140.8 64,140.8 63.4,139.2 63,140.8 61.3,140.8 62.6,141.8 62.1,143.4 63.4,142.4 
		64.8,143.4 	"/>
	<polygon fill="#FDCB0E" points="66.2,134.8 67.5,133.8 65.8,133.8 65.3,132.2 64.8,133.8 63.1,133.8 64.5,134.8 64,136.4 
		65.3,135.4 66.7,136.4 	"/>
	<polygon fill="#FDCB0E" points="71.2,129.6 72.6,128.7 70.9,128.7 70.4,127.1 69.9,128.7 68.2,128.7 69.6,129.6 69,131.2 
		70.4,130.3 71.8,131.2 	"/>
	<g>
		<path fill="#FFFFFF" d="M88.6,134.8c-1.9,2.3-5.1,4.4-8.9,5.7c-2.5,0.9-4.9,1.3-7.2,1.3l1.7-3.4C79.6,138.5,86.5,136.5,88.6,134.8
			"/>
	</g>
	<g>
		<path fill="#FFFFFF" d="M30.5,179.7c-1,0-1.8-0.3-2.3-0.9c-0.5-0.6-0.8-1.4-0.8-2.5c0-1.1,0.3-1.9,0.9-2.5
			c0.5-0.6,1.3-0.9,2.4-0.9c0.6,0,1.3,0.1,2.1,0.3v0.9c-0.9-0.3-1.6-0.5-2.1-0.5c-0.7,0-1.3,0.3-1.7,0.7c-0.4,0.5-0.6,1.1-0.6,2
			c0,0.8,0.2,1.5,0.6,1.9c0.4,0.5,1,0.7,1.7,0.7c0.6,0,1.3-0.2,2-0.5v0.8C31.9,179.5,31.2,179.7,30.5,179.7z"/>
		<path fill="#FFFFFF" d="M36.3,179.7c-0.9,0-1.7-0.3-2.2-0.9c-0.5-0.6-0.8-1.5-0.8-2.5c0-1,0.3-1.9,0.8-2.5
			c0.5-0.6,1.3-0.9,2.2-0.9c0.9,0,1.7,0.3,2.2,0.9c0.5,0.6,0.9,1.5,0.9,2.5c0,1.1-0.3,1.9-0.9,2.5C38.1,179.4,37.3,179.7,36.3,179.7
			z M36.4,179.1c0.7,0,1.2-0.3,1.5-0.7c0.3-0.5,0.5-1.1,0.5-2c0-0.9-0.2-1.5-0.5-2c-0.4-0.5-0.9-0.7-1.5-0.7c-0.7,0-1.1,0.3-1.5,0.7
			c-0.3,0.5-0.5,1.1-0.5,2c0,0.9,0.2,1.5,0.5,2C35.3,178.8,35.7,179.1,36.4,179.1z"/>
		<path fill="#FFFFFF" d="M41.3,179.5v-6.4h0.9l3.3,5v-5h0.8v6.5h-0.9l-3.3-5v5L41.3,179.5C41.3,179.6,41.3,179.5,41.3,179.5z"/>
		<path fill="#FFFFFF" d="M49.4,179.7c-0.5,0-1-0.1-1.7-0.3v-0.9c0.7,0.3,1.3,0.5,1.8,0.5c0.3,0,0.7-0.1,0.9-0.3
			c0.2-0.2,0.3-0.5,0.3-0.7s-0.1-0.5-0.2-0.7c-0.1-0.2-0.4-0.4-0.8-0.6l-0.5-0.3c-0.5-0.3-0.9-0.6-1.2-0.9c-0.2-0.3-0.3-0.6-0.3-1
			c0-0.5,0.2-0.9,0.5-1.2c0.3-0.3,0.8-0.5,1.4-0.5c0.5,0,1.1,0.1,1.6,0.3v0.9c-0.7-0.3-1.2-0.4-1.5-0.4c-0.3,0-0.6,0.1-0.8,0.3
			c-0.2,0.2-0.3,0.4-0.3,0.7c0,0.2,0.1,0.4,0.2,0.6c0.1,0.1,0.4,0.3,0.9,0.6l0.5,0.3c0.5,0.3,0.9,0.6,1.2,0.9c0.2,0.3,0.3,0.6,0.3,1
			c0,0.5-0.2,1-0.6,1.3C50.7,179.5,50.1,179.7,49.4,179.7z"/>
		<path fill="#FFFFFF" d="M53.5,179.5v-6.4h3.7v0.7h-2.7v2.1h2.3v0.7h-2.3v2.3h2.9v0.7C57.3,179.5,53.5,179.5,53.5,179.5z"/>
		<path fill="#FFFFFF" d="M58.8,179.5v-6.4h0.9v6.5L58.8,179.5L58.8,179.5z"/>
		<path fill="#FFFFFF" d="M61.9,179.5v-6.4h0.9v5.8h2.9v0.7L61.9,179.5L61.9,179.5z"/>
		<path fill="#FFFFFF" d="M70.4,179.5v-6.4h2.2c0.7,0,1.2,0.1,1.6,0.2c0.4,0.1,0.7,0.4,1.1,0.7c0.5,0.5,0.7,1.3,0.7,2.1
			c0,1.1-0.3,1.9-0.9,2.5c-0.6,0.6-1.4,0.9-2.4,0.9L70.4,179.5L70.4,179.5z M71.3,178.9h1.2c0.9,0,1.5-0.2,1.8-0.7
			c0.4-0.5,0.6-1.1,0.6-1.9c0-0.7-0.2-1.3-0.5-1.8c-0.2-0.3-0.5-0.5-0.8-0.5c-0.3-0.1-0.8-0.1-1.4-0.1h-0.7v5.1L71.3,178.9
			L71.3,178.9z"/>
		<path fill="#FFFFFF" d="M77.2,179.5v-6.4h3.7v0.7h-2.7v2.1h2.3v0.7h-2.3v2.3h2.9v0.7C81.1,179.5,77.2,179.5,77.2,179.5z"/>
		<path fill="#FFFFFF" d="M85.7,179.5v-6.4h0.9v5.8h2.9v0.7L85.7,179.5L85.7,179.5z"/>
		<path fill="#FFFFFF" d="M91.1,175.1v-0.3c0.1-0.1,0.3-0.1,0.3-0.3c0.1-0.1,0.1-0.4,0.1-0.7v-0.1h-0.4v-1.1h1.1v0.9
			c0,0.5-0.1,0.9-0.3,1.1C91.7,174.9,91.4,175.1,91.1,175.1z"/>
		<path fill="#FFFFFF" d="M94.1,179.5v-6.4h3.7v0.7h-2.7v2.1h2.3v0.7h-2.3v2.3H98v0.7C98,179.5,94.1,179.5,94.1,179.5z"/>
		<path fill="#FFFFFF" d="M99.5,173.1h0.9v4.1c0,0.7,0.1,1.1,0.3,1.4c0.3,0.3,0.6,0.5,1.1,0.5c0.5,0,0.9-0.1,1.1-0.4
			c0.2-0.3,0.3-0.7,0.3-1.4v-4.1h0.8v4.1c0,0.9-0.2,1.5-0.5,1.9c-0.4,0.4-0.9,0.6-1.7,0.6s-1.4-0.2-1.8-0.6
			c-0.4-0.4-0.6-1.1-0.6-1.9C99.5,177.2,99.5,173.1,99.5,173.1z"/>
		<path fill="#FFFFFF" d="M105.6,179.5v-6.4h2c0.6,0,1.1,0.1,1.5,0.4c0.3,0.3,0.5,0.7,0.5,1.2c0,0.9-0.5,1.5-1.3,1.9l2.2,3h-1.1
			l-1.9-2.7h-0.9v2.7L105.6,179.5L105.6,179.5z M106.5,176.1h0.3c1.1,0,1.7-0.5,1.7-1.3c0-0.7-0.5-1-1.5-1h-0.6L106.5,176.1
			L106.5,176.1z"/>
		<path fill="#FFFFFF" d="M114.3,179.7c-0.9,0-1.7-0.3-2.2-0.9c-0.5-0.6-0.8-1.5-0.8-2.5c0-1,0.3-1.9,0.8-2.5
			c0.5-0.6,1.3-0.9,2.2-0.9c0.9,0,1.7,0.3,2.2,0.9c0.5,0.6,0.9,1.5,0.9,2.5c0,1.1-0.3,1.9-0.9,2.5
			C116,179.4,115.3,179.7,114.3,179.7z M114.3,179.1c0.7,0,1.2-0.3,1.5-0.7c0.3-0.5,0.5-1.1,0.5-2c0-0.9-0.2-1.5-0.5-2
			c-0.4-0.5-0.9-0.7-1.5-0.7c-0.7,0-1.1,0.3-1.5,0.7c-0.3,0.5-0.5,1.1-0.5,2c0,0.9,0.2,1.5,0.5,2
			C113.2,178.8,113.7,179.1,114.3,179.1z"/>
		<path fill="#FFFFFF" d="M119.2,179.5v-6.4h1.8c0.8,0,1.3,0.1,1.7,0.4c0.3,0.3,0.5,0.7,0.5,1.3c0,0.7-0.3,1.2-0.7,1.6
			c-0.5,0.4-1.1,0.6-1.9,0.6h-0.4v2.6L119.2,179.5C119.2,179.6,119.2,179.5,119.2,179.5z M120.1,176.3h0.4c0.5,0,1-0.1,1.3-0.4
			c0.3-0.3,0.5-0.6,0.5-1.1c0-0.4-0.1-0.7-0.3-0.8c-0.3-0.1-0.6-0.3-1.2-0.3h-0.6L120.1,176.3L120.1,176.3z"/>
		<path fill="#FFFFFF" d="M124.6,179.5v-6.4h3.7v0.7h-2.7v2.1h2.3v0.7h-2.3v2.3h2.9v0.7C128.5,179.5,124.6,179.5,124.6,179.5z"/>
	</g>
	<g>
		<path fill="#FFFFFF" d="M30.5,108.5c-1,0-1.8-0.3-2.3-0.9c-0.5-0.6-0.8-1.4-0.8-2.5c0-1.1,0.3-1.9,0.9-2.5
			c0.5-0.6,1.3-0.9,2.4-0.9c0.6,0,1.3,0.1,2.1,0.3v0.9c-0.9-0.3-1.6-0.5-2.1-0.5c-0.7,0-1.3,0.3-1.7,0.7c-0.4,0.5-0.6,1.1-0.6,2
			c0,0.8,0.2,1.5,0.6,1.9c0.4,0.5,1,0.7,1.7,0.7c0.6,0,1.3-0.2,2-0.5v0.8C31.9,108.3,31.2,108.5,30.5,108.5z"/>
		<path fill="#FFFFFF" d="M36.7,108.5c-0.9,0-1.7-0.3-2.2-0.9c-0.5-0.6-0.8-1.5-0.8-2.5c0-1,0.3-1.9,0.8-2.5
			c0.5-0.6,1.3-0.9,2.2-0.9c0.9,0,1.7,0.3,2.2,0.9c0.5,0.6,0.9,1.5,0.9,2.5c0,1.1-0.3,1.9-0.9,2.5C38.4,108.2,37.7,108.5,36.7,108.5
			z M36.7,107.8c0.7,0,1.2-0.3,1.5-0.7c0.3-0.5,0.5-1.1,0.5-2c0-0.9-0.2-1.5-0.5-2c-0.4-0.5-0.9-0.7-1.5-0.7c-0.7,0-1.1,0.3-1.5,0.7
			c-0.3,0.5-0.5,1.1-0.5,2c0,0.9,0.2,1.5,0.5,2C35.6,107.6,36.1,107.8,36.7,107.8z"/>
		<path fill="#FFFFFF" d="M41.9,101.9h0.9v4.1c0,0.7,0.1,1.1,0.3,1.4c0.3,0.3,0.6,0.5,1.1,0.5c0.5,0,0.9-0.1,1.1-0.4
			c0.2-0.3,0.3-0.7,0.3-1.4v-4.1h0.8v4.1c0,0.9-0.2,1.5-0.5,1.9c-0.3,0.5-0.9,0.7-1.7,0.7c-0.8,0-1.4-0.2-1.8-0.6
			c-0.4-0.4-0.6-1.1-0.6-1.9L41.9,101.9L41.9,101.9z"/>
		<path fill="#FFFFFF" d="M48.5,108.3v-6.5h0.9l3.3,5v-5h0.8v6.5h-0.9l-3.3-5v5H48.5z"/>
		<path fill="#FFFFFF" d="M58.4,108.5c-1,0-1.8-0.3-2.3-0.9c-0.5-0.6-0.8-1.4-0.8-2.5c0-1.1,0.3-1.9,0.9-2.5
			c0.5-0.6,1.3-0.9,2.4-0.9c0.6,0,1.3,0.1,2.1,0.3v0.9c-1-0.3-1.7-0.5-2.2-0.5c-0.7,0-1.3,0.3-1.7,0.7c-0.4,0.5-0.6,1.1-0.6,2
			c0,0.8,0.2,1.5,0.6,1.9c0.4,0.5,1,0.7,1.7,0.7c0.6,0,1.3-0.2,2-0.5v0.8C59.9,108.3,59.2,108.5,58.4,108.5z"/>
		<path fill="#FFFFFF" d="M62,108.3v-6.5H63v6.5H62z"/>
		<path fill="#FFFFFF" d="M65.6,108.3v-6.5h0.9v5.8h2.9v0.7L65.6,108.3L65.6,108.3z"/>
		<path fill="#FFFFFF" d="M77.4,108.5c-0.9,0-1.7-0.3-2.2-0.9c-0.5-0.6-0.8-1.5-0.8-2.5c0-1,0.3-1.9,0.8-2.5
			c0.5-0.6,1.3-0.9,2.2-0.9c0.9,0,1.7,0.3,2.2,0.9c0.5,0.6,0.9,1.5,0.9,2.5c0,1.1-0.3,1.9-0.9,2.5C79.1,108.2,78.4,108.5,77.4,108.5
			z M77.4,107.8c0.7,0,1.2-0.3,1.5-0.7c0.3-0.5,0.5-1.1,0.5-2c0-0.9-0.2-1.5-0.5-2c-0.4-0.5-0.9-0.7-1.5-0.7c-0.7,0-1.1,0.3-1.5,0.7
			c-0.3,0.5-0.5,1.1-0.5,2c0,0.9,0.2,1.5,0.5,2C76.3,107.6,76.8,107.8,77.4,107.8z"/>
		<path fill="#FFFFFF" d="M82.7,108.3v-6.5h3.7v0.7h-2.7v2.1h2.3v0.7h-2.3v2.9L82.7,108.3L82.7,108.3z"/>
		<path fill="#FFFFFF" d="M91.9,108.3v-6.5h3.7v0.7h-2.7v2.1h2.3v0.7h-2.3v2.3h2.9v0.7L91.9,108.3L91.9,108.3L91.9,108.3z"/>
		<path fill="#FFFFFF" d="M97.5,101.9h0.9v4.1c0,0.7,0.1,1.1,0.3,1.4c0.3,0.3,0.6,0.5,1.1,0.5c0.5,0,0.9-0.1,1.1-0.4
			c0.2-0.3,0.3-0.7,0.3-1.4v-4.1h0.8v4.1c0,0.9-0.2,1.5-0.5,1.9c-0.4,0.4-0.9,0.6-1.7,0.6c-0.8,0-1.4-0.2-1.8-0.6
			c-0.4-0.4-0.6-1.1-0.6-1.9C97.5,105.9,97.5,101.9,97.5,101.9z"/>
		<path fill="#FFFFFF" d="M104,108.3v-6.5h2c0.6,0,1.1,0.1,1.5,0.4c0.3,0.3,0.5,0.7,0.5,1.2c0,0.9-0.5,1.5-1.3,1.9l2.2,3h-1.1
			l-1.9-2.7h-0.9v2.7H104z M104.9,104.9h0.3c1.1,0,1.7-0.5,1.7-1.3c0-0.7-0.5-1-1.5-1h-0.6C104.9,102.6,104.9,104.9,104.9,104.9z"/>
		<path fill="#FFFFFF" d="M113.1,108.5c-0.9,0-1.7-0.3-2.2-0.9c-0.5-0.6-0.8-1.5-0.8-2.5c0-1,0.3-1.9,0.8-2.5
			c0.5-0.6,1.3-0.9,2.2-0.9c0.9,0,1.7,0.3,2.2,0.9c0.5,0.6,0.9,1.5,0.9,2.5c0,1.1-0.3,1.9-0.9,2.5
			C114.8,108.2,114.1,108.5,113.1,108.5z M113.1,107.8c0.7,0,1.2-0.3,1.5-0.7c0.3-0.5,0.5-1.1,0.5-2c0-0.9-0.2-1.5-0.5-2
			c-0.4-0.5-0.9-0.7-1.5-0.7c-0.7,0-1.1,0.3-1.5,0.7c-0.3,0.5-0.5,1.1-0.5,2c0,0.9,0.2,1.5,0.5,2C112,107.6,112.5,107.8,113.1,107.8
			z"/>
		<path fill="#FFFFFF" d="M118.4,108.3v-6.5h1.8c0.8,0,1.3,0.1,1.7,0.4c0.3,0.3,0.5,0.7,0.5,1.3c0,0.7-0.3,1.2-0.7,1.6
			c-0.5,0.4-1.1,0.6-1.9,0.6h-0.4v2.6L118.4,108.3L118.4,108.3z M119.3,105.1h0.4c0.5,0,1-0.1,1.3-0.4c0.3-0.3,0.5-0.6,0.5-1.1
			c0-0.4-0.1-0.7-0.3-0.8c-0.3-0.1-0.6-0.3-1.2-0.3h-0.6L119.3,105.1L119.3,105.1z"/>
		<path fill="#FFFFFF" d="M124.1,108.3v-6.5h3.7v0.7H125v2.1h2.3v0.7H125v2.3h2.9v0.7L124.1,108.3L124.1,108.3L124.1,108.3z"/>
	</g>
</g>
<g>
	<path fill="#FFFFFF" d="M156.8,152.8c-0.6,0.3-1.7,0.5-3.1,0.5c-5.2,0-7.6-4.3-7.6-10c0-7.6,4.2-10.6,8.2-10.6
		c1.4,0,2.3,0.3,2.7,0.5l-0.7,3.3c-0.4-0.2-1-0.4-1.8-0.4c-2.2,0-4.2,1.9-4.2,6.9c0,4.8,1.8,6.7,4.2,6.7c0.7,0,1.4-0.1,1.9-0.3
		L156.8,152.8z"/>
	<path fill="#FFFFFF" d="M170.2,142.6c0,7.6-2.7,10.7-6.5,10.7c-4.6,0-6.4-4.9-6.4-10.4c0-5.5,2.2-10.3,6.7-10.3
		C168.8,132.6,170.2,138,170.2,142.6z M161.4,143c0,4.6,0.9,6.9,2.5,6.9c1.6,0,2.3-3,2.3-7.1c0-3.5-0.5-6.7-2.3-6.7
		C162.2,136.1,161.4,138.6,161.4,143z"/>
	<path fill="#FFFFFF" d="M176.2,132.9V146c0,3,0.9,3.9,1.9,3.9c1.1,0,1.9-0.8,1.9-3.9v-13.1h3.9v12.4c0,5.2-1.9,8-5.9,8
		c-4.2,0-5.9-2.9-5.9-8v-12.5H176.2z"/>
	<path fill="#FFFFFF" d="M187.1,153.1v-20.2h3.6l3.1,7.9c0.6,1.6,1.6,4.2,2.2,5.9h0.1c-0.1-2.1-0.4-5.6-0.4-9.4v-4.5h3.4v20.2h-3.6
		l-3.1-7.7c-0.7-1.7-1.6-4.3-2-6.1h-0.1c0.1,2,0.2,5.2,0.2,9.2v4.6C190.6,153.1,187.1,153.1,187.1,153.1z"/>
	<path fill="#FFFFFF" d="M212,152.8c-0.6,0.3-1.7,0.5-3.1,0.5c-5.2,0-7.6-4.3-7.6-10c0-7.6,4.2-10.6,8.2-10.6c1.4,0,2.3,0.3,2.7,0.5
		l-0.7,3.3c-0.4-0.2-1-0.4-1.8-0.4c-2.2,0-4.2,1.9-4.2,6.9c0,4.8,1.8,6.7,4.2,6.7c0.7,0,1.4-0.1,1.9-0.3L212,152.8z"/>
	<path fill="#FFFFFF" d="M217.8,132.9v20.2h-3.9v-20.2H217.8z"/>
	<path fill="#FFFFFF" d="M221,132.9h3.9v16.9h5.2v3.3H221L221,132.9L221,132.9z"/>
	<path fill="#FFFFFF" d="M248.5,142.6c0,7.6-2.7,10.7-6.5,10.7c-4.6,0-6.4-4.9-6.4-10.4c0-5.5,2.2-10.3,6.7-10.3
		C247.1,132.6,248.5,138,248.5,142.6z M239.6,143c0,4.6,0.9,6.9,2.5,6.9c1.6,0,2.3-3,2.3-7.1c0-3.5-0.5-6.7-2.3-6.7
		C240.5,136.1,239.6,138.6,239.6,143z"/>
	<path fill="#FFFFFF" d="M250.7,132.9h8.8v3.4h-4.9v5.2h4.6v3.3h-4.6v8.3h-3.9V132.9z"/>
	<path fill="#FFFFFF" d="M275.2,144.2h-4.6v5.5h5.2v3.4h-9.1v-20.2h8.8v3.4h-4.9v4.6h4.6V144.2z"/>
	<path fill="#FFFFFF" d="M281.9,132.9V146c0,3,0.9,3.9,1.9,3.9c1.1,0,2-0.8,2-3.9v-13.1h3.9v12.4c0,5.2-2,8-5.9,8
		c-4.2,0-5.9-2.9-5.9-8v-12.5H281.9z"/>
	<path fill="#FFFFFF" d="M292.8,133.2c1.2-0.2,2.8-0.4,4.3-0.4c2.2,0,4.1,0.3,5.4,1.5c1.2,1.1,1.6,2.5,1.6,4.2c0,2.2-1,4.1-3.1,5.1
		v0.1c1.4,0.5,2.1,1.8,2.5,4c0.4,2.2,0.9,4.7,1.3,5.5h-4.1c-0.2-0.6-0.7-2.6-1-4.8c-0.4-2.5-1-3.2-2.3-3.2h-0.6v8.1h-3.9
		L292.8,133.2L292.8,133.2z M296.8,142h0.7c1.7,0,2.7-1.4,2.7-3.1c0-1.7-0.7-2.9-2.5-3c-0.3,0-0.7,0-0.9,0.1L296.8,142L296.8,142z"
		/>
	<path fill="#FFFFFF" d="M318.6,142.6c0,7.6-2.7,10.7-6.5,10.7c-4.6,0-6.4-4.9-6.4-10.4c0-5.5,2.2-10.3,6.7-10.3
		C317.2,132.6,318.6,138,318.6,142.6z M309.7,143c0,4.6,0.9,6.9,2.5,6.9c1.6,0,2.3-3,2.3-7.1c0-3.5-0.5-6.7-2.3-6.7
		C310.6,136.1,309.7,138.6,309.7,143z"/>
	<path fill="#FFFFFF" d="M320.8,133.2c1.1-0.2,2.6-0.4,4.1-0.4c2.3,0,4.2,0.3,5.5,1.6c1.2,1.1,1.7,2.7,1.7,4.4
		c0,2.2-0.7,3.7-1.7,4.9c-1.3,1.3-3.3,1.9-4.9,1.9c-0.3,0-0.5,0-0.8,0v7.5h-3.9L320.8,133.2L320.8,133.2z M324.7,142.4
		c0.2,0.1,0.4,0.1,0.6,0.1c2,0,2.9-1.4,2.9-3.3c0-1.8-0.7-3.1-2.5-3.1c-0.4,0-0.7,0.1-1,0.1L324.7,142.4L324.7,142.4z"/>
	<path fill="#FFFFFF" d="M342.7,144.2h-4.6v5.5h5.2v3.4h-9.1v-20.2h8.8v3.4h-4.9v4.6h4.6L342.7,144.2L342.7,144.2z"/>
</g>
</svg>
